# xmcd
#
# Track frame offsets: 
#        150
#        20704
#        37514
#        54499
#        66018
#        91482
#        109571
#        129855
#        144645
#        162702
#        189068
#
# Disc length: 2710 seconds
#
# Revision: 0
# Processed by: cddbd v1.5.2PL0 Copyright (c) Steve Scherf et al.
# Submitted via: ExactAudioCopy v1.0b3
#
DISCID=880a940b
DTITLE=Yngve and his Boogie Legs - Yngve and his BOOGIE LEGS
DYEAR=2012
DGENRE=Rock and Roll
TTITLE0=Over In A Day
TTITLE1=What I'm Gonna Do
TTITLE2=Take Your Mind Off Me
TTITLE3=Too Good To Be A Sin
TTITLE4=In This City
TTITLE5=Think Again
TTITLE6=This Is For Me
TTITLE7=Going Down
TTITLE8=Someone Like You
TTITLE9=Fille Me Tenderly (featuring Elly Marvellous)
TTITLE10=Now That You Are Gone
EXTD=
EXTT0=
EXTT1=
EXTT2=
EXTT3=
EXTT4=
EXTT5=
EXTT6=
EXTT7=
EXTT8=
EXTT9=
EXTT10=
PLAYORDER=
